<svg width="1024" height="1024" viewBox="0 0 1024 1024" fill="none" xmlns="http://www.w3.org/2000/svg">
<g clip-path="url(#clip0_1619_281)">
<rect width="1024" height="1024" rx="180" fill="white"/>
<rect width="1024" height="1024" fill="url(#paint0_linear_1619_281)"/>
<g clip-path="url(#clip1_1619_281)">
<path d="M518.132 699.449H804.485C816.463 699.449 826.445 690.036 826.445 678.059C826.445 665.795 816.463 656.382 804.485 656.382H518.132C506.152 656.382 496.455 665.795 496.455 678.059C496.455 690.036 506.152 699.449 518.132 699.449Z" fill="white" fill-opacity="0.85"/>
<path d="M239.122 726.085C261.82 726.085 275.737 710.952 275.737 691.337C275.737 685.172 273.122 678.167 269.479 674.617C265.276 670.601 262.567 669.48 262.567 664.809C262.567 660.98 265.462 658.364 269.853 658.364C273.029 658.364 275.083 659.298 278.446 662.194C281.342 664.716 283.864 667.892 285.639 671.628C300.023 668.265 305.441 659.485 305.441 645.381C305.441 641.271 308.897 637.814 313.007 637.814C317.117 637.814 320.48 641.271 320.48 645.381C320.573 666.024 311.046 680.409 290.122 685.732C290.309 687.6 290.496 689.562 290.496 691.618C290.496 709.084 282.93 723.189 269.759 732.063C279.1 737.854 291.056 741.123 303.293 741.123C305.627 741.123 308.243 740.937 313.194 740.75C312.166 736.079 311.606 731.689 311.606 727.486C311.606 672.002 390.255 678.073 390.255 625.298C390.255 603.347 368.958 588.308 348.222 588.308C346.354 588.308 343.738 588.682 341.123 589.242C333.65 579.995 321.694 574.391 310.485 574.391C290.682 574.391 277.512 587.281 276.858 605.122C276.671 609.886 273.496 612.594 269.386 612.594C265.089 612.594 261.82 609.325 262.006 604.468C262.287 597.743 263.688 591.578 266.116 586.16C261.726 584.946 257.336 584.385 252.946 584.385C230.341 584.385 213.434 598.677 213.434 616.144C213.434 627.82 222.121 637.441 234.731 637.441C238.841 637.441 242.204 640.897 242.204 644.913C242.204 649.023 238.841 652.479 234.731 652.479C218.385 652.479 206.429 644.913 200.918 633.051C192.137 643.232 187 656.683 187 670.601C187 702.639 207.643 726.085 239.122 726.085ZM389.695 781.009C413.047 781.009 424.442 752.612 424.442 724.964C424.442 720.76 424.256 716.838 424.162 713.194C415.942 717.398 405.948 719.266 394.459 718.519C390.255 718.239 386.892 715.25 386.892 711.046C386.892 706.936 390.255 703.2 394.459 703.574C417.437 705.348 432.849 692.458 432.849 671.441C432.849 652.76 422.761 637.441 406.508 629.688C394.646 691.15 327.485 682.931 325.431 724.777C324.776 738.882 335.518 749.997 350.837 749.997C356.255 749.997 358.964 749.81 361.392 749.717C363.54 765.596 373.536 781.009 389.695 781.009Z" fill="white" fill-opacity="0.85"/>
<path d="M518.132 369.744H804.485C816.463 369.744 826.445 360.332 826.445 348.068C826.445 336.089 816.463 326.677 804.485 326.677H518.132C506.152 326.677 496.455 336.089 496.455 348.068C496.455 360.332 506.152 369.744 518.132 369.744Z" fill="white" fill-opacity="0.85"/>
<path d="M309.926 470.709C376.952 470.709 432.853 415.092 432.853 348.067C432.853 280.757 376.952 224.855 309.926 224.855C242.616 224.855 187 280.757 187 348.067C187 415.092 242.902 470.709 309.926 470.709ZM295.381 413.951C289.391 413.951 285.398 410.814 281.12 405.965L249.176 367.462C246.324 364.324 245.468 360.902 245.468 356.338C245.468 348.067 251.743 341.507 259.444 341.507C264.863 341.507 268.856 343.789 272.564 348.638L294.81 376.874L345.578 295.303C349.001 290.169 353.279 287.317 358.413 287.317C366.399 287.317 373.244 293.592 373.244 300.722C373.244 304.715 372.103 308.137 369.536 312.416L309.926 405.965C306.789 411.099 301.655 413.951 295.381 413.951Z" fill="white" fill-opacity="0.85"/>
</g>
</g>
<defs>
<linearGradient id="paint0_linear_1619_281" x1="512" y1="0" x2="512" y2="1024" gradientUnits="userSpaceOnUse">
<stop stop-color="#6F43D6"/>
<stop offset="0.0001" stop-color="#6F43D6" stop-opacity="0.75"/>
<stop offset="1" stop-color="#6F43D6"/>
</linearGradient>
<clipPath id="clip0_1619_281">
<rect width="1024" height="1024" rx="180" fill="white"/>
</clipPath>
<clipPath id="clip1_1619_281">
<rect width="650" height="576.986" fill="white" transform="translate(187 224)"/>
</clipPath>
</defs>
</svg>
